# xmcd
#
# Track frame offsets:
#	150
#	12049
#	27208
#	40168
#	57180
#	73444
#	83685
#	93211
#	104818
#	118407
#	131712
#	144972
#	156737
#	168808
#	181839
#	196410
#	209327
#	219560
#	230553
#	241956
#	252436
#
# Disc length: 3589 seconds
#
# Revision: 0
# Processed by: cddbd v1.5.2PL0 Copyright (c) Steve Scherf et al.
# Submitted via: audiograbber 1.83.01
#
DISCID=320e0315
DTITLE=Dolly Parton - Anthology
DYEAR=1900
DGENRE=Country
TTITLE0=Jolene (1974)
TTITLE1=Old Flames (Can't Hold A Candle To You) 1979
TTITLE2=Two Doors Down (1977)
TTITLE3=My Blue Ridge Mountain Boy (1969)
TTITLE4=Save The Last Dance For Me (1980)
TTITLE5=Put It Off Until Tomorrow (1967)
TTITLE6=Something Fishy (1967)
TTITLE7=I've Lived My Life (1967)
TTITLE8=Coat Of Many Colours (1971)
TTITLE9=Daddy Come And Get Me (1969)
TTITLE10=My Tennessee Mountain Home (1972)
TTITLE11=9 To 5 (1960)
TTITLE12=In The Good Old Days(When Times Were Bad)1968
TTITLE13=Joshua (1970)
TTITLE14=But You Know I Love You (1980)
TTITLE15=Daddy Won't Be Home Anymore (1967)
TTITLE16=Happy Happy Birthday (1965)
TTITLE17=Dumb Blonde (1967)
TTITLE18=The Company You Keep (1967)
TTITLE19=Too Lonely Too Long (1967)
TTITLE20=Down From Dover (1969)
EXTD=
EXTT0=
EXTT1=
EXTT2=
EXTT3=
EXTT4=
EXTT5=
EXTT6=
EXTT7=
EXTT8=
EXTT9=
EXTT10=
EXTT11=
EXTT12=
EXTT13=
EXTT14=
EXTT15=
EXTT16=
EXTT17=
EXTT18=
EXTT19=
EXTT20=
PLAYORDER=
